<svg aria-hidden="true" style="position:absolute;width:0;height:0;overflow:hidden" xmlns="http://www.w3.org/2000/svg"><defs><symbol id="icon-check" viewBox="0 0 32 32"><path fill="#ff3f3a" style="fill:var(--color1, #ff3f3a)" d="M16 30.667c8.087 0 14.667-6.579 14.667-14.667 0-1.396-.195-2.771-.581-4.089a1.222 1.222 0 1 0-2.346.686c.32 1.095.482 2.24.482 3.403 0 6.739-5.483 12.222-12.222 12.222S3.778 22.739 3.778 16 9.261 3.778 16 3.778c2.449 0 4.806.716 6.815 2.071a1.222 1.222 0 0 0 1.366-2.027A14.574 14.574 0 0 0 16 1.334c-8.087 0-14.667 6.579-14.667 14.667S7.913 30.668 16 30.668z"/><path fill="#ff3f3a" style="fill:var(--color1, #ff3f3a)" d="M29.723 3.058 15.999 16.781l-4.391-4.39a1.332 1.332 0 1 0-1.885 1.885l5.333 5.333c.261.261.601.391.943.391s.682-.13.943-.391L31.609 4.942a1.332 1.332 0 1 0-1.885-1.885z"/></symbol></defs></svg>