<svg aria-hidden="true" style="position:absolute;width:0;height:0;overflow:hidden" xmlns="http://www.w3.org/2000/svg"><defs><symbol id="icon-youtube" viewBox="0 0 32 32"><path fill="#ff3f3a" style="fill:var(--color1, #ff3f3a)" d="M32 16c0 8.837-7.163 16-16 16S0 24.837 0 16 7.163 0 16 0s16 7.163 16 16z"/><path fill="#fff" style="fill:var(--color2, #fff)" d="M20 15.467c.41.237.41.829 0 1.066l-5.538 3.198a.615.615 0 0 1-.923-.533v-6.395c0-.474.513-.77.923-.533L20 15.468z"/></symbol><symbol id="icon-profile" viewBox="0 0 32 32"><path d="M16 4.334a4.667 4.667 0 1 0 0 9.334 4.667 4.667 0 0 0 0-9.334zM8.667 9.001a7.333 7.333 0 1 1 14.666 0A7.333 7.333 0 0 1 8.667 9zM8.139 20.334c-.924 0-1.647.45-1.94 1.097-.406.895-.774 1.961-.86 2.971-.039.452.15.785.409.946 1.372.852 4.552 2.319 10.253 2.319s8.88-1.467 10.253-2.319c.26-.161.448-.494.409-.946-.087-1.011-.454-2.076-.86-2.971-.293-.647-1.016-1.097-1.94-1.097H8.14zm-4.369-.005c.811-1.787 2.621-2.662 4.369-2.662h15.723c1.748 0 3.558.875 4.369 2.662.466 1.027.965 2.407 1.089 3.845.112 1.31-.432 2.677-1.659 3.439-1.805 1.121-5.474 2.721-11.66 2.721s-9.855-1.6-11.66-2.721c-1.227-.762-1.771-2.13-1.659-3.439.123-1.438.623-2.818 1.089-3.845z"/></symbol></defs></svg>